<svg width="24" height="24" viewBox="0 0 24 24" fill="none" xmlns="http://www.w3.org/2000/svg">
<g clip-path="url(#clip0_27_91)">
<path d="M12 16C14.2091 16 16 14.2091 16 12C16 9.79086 14.2091 8 12 8C9.79086 8 8 9.79086 8 12C8 14.2091 9.79086 16 12 16Z" stroke="#C6AA0E" stroke-width="2" stroke-linecap="round" stroke-linejoin="round"/>
<path d="M16 7.99987V12.9999C16 13.7955 16.3161 14.5586 16.8787 15.1212C17.4413 15.6838 18.2044 15.9999 19 15.9999C19.7957 15.9999 20.5587 15.6838 21.1213 15.1212C21.6839 14.5586 22 13.7955 22 12.9999V11.9999C21.9999 9.7429 21.2362 7.55235 19.8333 5.7844C18.4303 4.01645 16.4706 2.77509 14.2726 2.26217C12.0747 1.74924 9.76794 1.99491 7.72736 2.95923C5.68677 3.92356 4.03241 5.54982 3.03327 7.57359C2.03413 9.59736 1.74898 11.8996 2.22418 14.106C2.69938 16.3124 3.90699 18.2931 5.65064 19.7261C7.39429 21.1592 9.57144 21.9602 11.8281 21.999C14.0847 22.0378 16.2881 21.3121 18.08 19.9399" stroke="#C6AA0E" stroke-width="2" stroke-linecap="round" stroke-linejoin="round"/>
<path d="M406.934 -213.571C403.328 -231.736 395.273 -248.36 384.025 -262.092C381.653 -265.085 379.175 -267.764 376.489 -270.444C356.559 -290.472 328.588 -302.966 298.03 -302.966H-280.03C-310.587 -302.966 -338.459 -290.472 -358.483 -270.444C-361.162 -267.764 -363.641 -265.085 -366.019 -262.092C-377.273 -248.361 -385.328 -231.736 -388.834 -213.571C-390.275 -206.56 -391 -199.314 -391 -191.989V214C-391 229.575 -387.697 244.547 -381.806 258.067C-376.342 270.973 -368.286 282.651 -358.484 292.444C-356 294.922 -353.533 297.2 -350.841 299.465C-331.644 315.364 -306.864 324.965 -280.03 324.965H298.03C324.873 324.965 349.761 315.364 368.847 299.365C371.531 297.2 374.011 294.922 376.489 292.444C386.286 282.651 394.341 270.973 399.917 258.067V257.967C405.806 244.447 408.998 229.575 408.998 214.001V-191.989C409 -199.314 408.286 -206.56 406.934 -213.571ZM-318.33 -230.296C-308.416 -240.199 -295.102 -246.194 -280.03 -246.194H298.03C313.102 -246.194 326.533 -240.199 336.33 -230.296C338.083 -228.531 339.734 -226.566 341.192 -224.613L38.2125 39.442C29.8563 46.7654 19.5344 50.3826 9 50.3826C-1.42813 50.3826 -11.7438 46.7654 -20.2109 39.442L-323.075 -224.725C-321.734 -226.678 -320.083 -228.531 -318.33 -230.296ZM-334.228 214V-165.977L-114.972 25.2967L-334.117 216.367C-334.228 215.642 -334.228 214.826 -334.228 214ZM298.03 268.183H-280.03C-289.844 268.183 -299.027 265.603 -306.864 261.07L-75.6484 59.5717L-54.0625 78.3498C-35.9984 94.0467 -13.3937 101.997 9 101.997C31.5094 101.997 54.1125 94.0467 72.175 78.3498L93.75 59.5717L324.875 261.07C317.027 265.603 307.844 268.183 298.03 268.183ZM352.228 214C352.228 214.826 352.228 215.642 352.122 216.367L132.978 25.4076L352.228 -165.875V214Z" fill="black"/>
</g>
<defs>
<clipPath id="clip0_27_91">
<rect width="24" height="24" fill="white"/>
</clipPath>
</defs>
</svg>
