<svg width="38" height="50" viewBox="0 0 38 50" fill="none" xmlns="http://www.w3.org/2000/svg">
<path d="M7.55458 34.456L8.8323 33.1783H18.1803L12.2157 22.4011L7.80473 23.2983C6.64797 23.5332 5.72492 24.4046 5.4231 25.5461L0.186585 42.6355C-0.0600332 43.5656 0.140784 44.558 0.727969 45.319C1.31515 46.0823 2.22294 46.5286 3.18593 46.5286H7.55576L7.55458 34.456Z" fill="#C6AA0E"/>
<path d="M37.8158 42.6356L32.5792 25.5462C32.2727 24.3906 31.3321 23.5133 30.1577 23.2902L25.7632 22.4587L19.8232 33.1772H29.8758L31.1536 34.4549V46.5263H34.8188C35.7806 46.5263 36.6895 46.08 37.2767 45.3167C37.8627 44.5533 38.06 43.5657 37.8158 42.6356Z" fill="#C6AA0E"/>
<path d="M10.1112 46.5285H9.75653V46.5332L28.2435 46.5321V46.5285H28.597V35.7361H10.1112V46.5285Z" fill="#C6AA0E"/>
<path d="M32.995 47.689H5.0062V50.0001H32.995V47.689Z" fill="#C6AA0E"/>
<path d="M9.03664 14.8606C9.08596 14.9616 9.15055 15.1166 9.21866 15.2787C9.48994 15.9316 9.71073 16.419 10.0172 16.7055C11.4371 21.3384 15.1011 24.5456 18.9941 24.5339C22.8707 24.521 26.4901 21.2856 27.8571 16.6398C28.1577 16.3509 28.3715 15.8659 28.6357 15.2176C28.7026 15.052 28.7637 14.8958 28.8119 14.7948C29.3368 13.7097 29.156 12.5342 28.422 11.9622C28.422 11.927 28.422 11.8906 28.422 11.8554C28.4044 6.10448 27.6539 -0.0292543 18.9096 0.000104983C10.1006 0.0282899 9.38425 5.90367 9.40304 11.9176C9.40304 11.954 9.40422 11.9893 9.40422 12.0245C8.67611 12.6046 8.50465 13.7813 9.03664 14.8606ZM10.2662 13.0086L10.292 12.998C10.4365 12.9452 10.5516 12.843 10.6256 12.7162L12.1511 12.9522C12.2979 12.9734 12.44 12.8947 12.4987 12.7596L13.4628 10.533C14.5538 10.7949 18.6853 11.7285 21.923 11.7168C22.9259 11.7145 23.7585 11.617 24.4033 11.4279L25.0151 12.9041C25.0656 13.0286 25.1866 13.1061 25.3146 13.1049C25.3416 13.1049 25.3733 13.1002 25.4015 13.0932L27.1783 12.5941C27.2488 12.7502 27.3791 12.8783 27.5459 12.9405L27.5706 12.9487C27.8348 13.0802 27.9217 13.6569 27.6434 14.23C27.5764 14.3685 27.5071 14.5435 27.4296 14.7291C27.3216 14.998 27.0996 15.5452 26.9646 15.692C26.8178 15.7766 26.7062 15.9163 26.6616 16.0819C25.5001 20.2838 22.3399 23.2256 18.9824 23.2374C15.6072 23.2479 12.4036 20.3273 11.1928 16.1348C11.1446 15.9692 11.0354 15.8318 10.8863 15.7484C10.75 15.6016 10.5199 15.0508 10.4083 14.7807C10.3331 14.5987 10.2603 14.4249 10.1922 14.2887C9.91859 13.7179 10.0008 13.1413 10.2662 13.0086Z" fill="#C6AA0E"/>
</svg>
