<svg width="50" height="53" viewBox="0 0 50 53" fill="none" xmlns="http://www.w3.org/2000/svg">
<g clip-path="url(#clip0_13_21)">
<path d="M16.2812 0.21725C16.1523 0.241825 16.0195 0.266401 15.9062 0.348319C15.4492 0.671895 15.3477 1.34362 15.6562 1.82284L17.8125 5.19786C14.4805 7.04921 11.9961 10.1252 11.1875 13.8156H38.8125C38.0039 10.1252 35.5195 7.04921 32.1875 5.19786L34.3438 1.82284C34.6523 1.34362 34.5508 0.671895 34.0938 0.348319C33.6328 0.0247425 32.9961 0.164003 32.6875 0.643223L30.3125 4.31315C28.6641 3.68238 26.875 3.33013 25 3.33013C23.125 3.33013 21.3359 3.68238 19.6875 4.31315L17.3125 0.643223C17.082 0.282784 16.6641 0.139428 16.2812 0.21725ZM19.5 8.57288C20.3281 8.57288 21 9.27737 21 10.1457C21 11.0181 20.3281 11.7185 19.5 11.7185C18.668 11.7185 18 11.0181 18 10.1457C18 9.27737 18.668 8.57288 19.5 8.57288ZM30.5 8.57288C31.332 8.57288 32 9.27737 32 10.1457C32 11.0181 31.332 11.7185 30.5 11.7185C29.6719 11.7185 29 11.0181 29 10.1457C29 9.27737 29.6719 8.57288 30.5 8.57288ZM8 15.9127C6.34375 15.9127 5 17.3217 5 19.0584V33.7381C5 35.4747 6.34375 36.8837 8 36.8837C8.35156 36.8837 8.6875 36.8059 9 36.6871V16.1093C8.6875 15.9906 8.35156 15.9127 8 15.9127ZM11 15.9127V38.9808C11 40.7134 12.3477 42.1265 14 42.1265H36C37.6523 42.1265 39 40.7134 39 38.9808V15.9127H11ZM42 15.9127C41.6484 15.9127 41.3125 15.9906 41 16.1093V36.6871C41.3125 36.8018 41.6484 36.8837 42 36.8837C43.6562 36.8837 45 35.4747 45 33.7381V19.0584C45 17.3217 43.6562 15.9127 42 15.9127ZM15 44.2236V48.4178C15 50.7319 16.793 52.612 19 52.612C21.207 52.612 23 50.7319 23 48.4178V44.2236H15ZM27 44.2236V48.4178C27 50.7319 28.793 52.612 31 52.612C33.207 52.612 35 50.7319 35 48.4178V44.2236H27Z" fill="black"/>
</g>
<defs>
<clipPath id="clip0_13_21">
<rect width="50" height="52.4275" fill="white" transform="translate(0 0.173004)"/>
</clipPath>
</defs>
</svg>
