<svg width="31" height="40" viewBox="0 0 31 40" fill="none" xmlns="http://www.w3.org/2000/svg">
<path d="M2.58347 5H10.3335C11.7037 5 13.0179 5.70238 13.9868 6.95262C14.9558 8.20286 15.5002 9.89856 15.5002 11.6667V35C15.5002 33.6739 15.0919 32.4021 14.3652 31.4645C13.6385 30.5268 12.6528 30 11.6252 30H2.58347V5Z" stroke="#C6AA0E" stroke-width="2" stroke-linecap="round" stroke-linejoin="round"/>
<path d="M28.4167 5H20.6667C19.2964 5 17.9822 5.70238 17.0133 6.95262C16.0444 8.20286 15.5 9.89856 15.5 11.6667V35C15.5 33.6739 15.9083 32.4021 16.635 31.4645C17.3616 30.5268 18.3473 30 19.375 30H28.4167V5Z" stroke="#C6AA0E" stroke-width="2" stroke-linecap="round" stroke-linejoin="round"/>
</svg>
