<svg width="15" height="15" viewBox="0 0 15 15" fill="none" xmlns="http://www.w3.org/2000/svg">
<g clip-path="url(#clip0_27_50)">
<path d="M6.19172 8.98544L4.6875 7.5L3.75 8.4375L6.19377 10.7812L11.25 5.15625L10.3038 4.21875L6.19172 8.98544Z" fill="#C6AA0E"/>
<path d="M7.5 0C3.35769 0 0 3.35769 0 7.5C0 11.6423 3.35769 15 7.5 15C11.6423 15 15 11.6423 15 7.5C15 3.35769 11.6423 0 7.5 0ZM7.5 13.8281C4.00497 13.8281 1.17188 10.995 1.17188 7.5C1.17188 4.00497 4.00497 1.17188 7.5 1.17188C10.995 1.17188 13.8281 4.00497 13.8281 7.5C13.8281 10.995 10.995 13.8281 7.5 13.8281Z" fill="#C6AA0E"/>
</g>
<defs>
<clipPath id="clip0_27_50">
<rect width="15" height="15" fill="white"/>
</clipPath>
</defs>
</svg>
