<svg width="50" height="50" viewBox="0 0 50 50" fill="none" xmlns="http://www.w3.org/2000/svg">
<g clip-path="url(#clip0_29_176)">
<path d="M46.2244 21.2247C46.2244 9.52197 36.7059 0 25.0011 0C23.0303 0 21.1332 0.291278 19.3222 0.796711L19.2795 0.76779C19.2698 0.782251 19.2623 0.798088 19.2519 0.812549C10.338 3.32663 3.77631 11.5155 3.77631 21.2234C3.77631 25.5003 5.05848 29.4804 7.24203 32.8132H4.77478V50.0007H45.2287V32.8132H42.7628C44.9484 29.4831 46.2244 25.5016 46.2244 21.2247ZM44.1132 20.198H36.4635C36.3884 17.9174 36.1309 15.6753 35.6723 13.4986H42.5253C43.4411 15.5631 43.9892 17.8251 44.1132 20.198ZM41.4476 11.4342H35.1641C34.3963 8.6082 33.3187 5.90269 31.9112 3.36726C35.9168 4.92694 39.2654 7.78808 41.4476 11.4342ZM26.0326 2.11332C27.031 2.16703 28.013 2.2772 28.9688 2.48034C30.7495 5.24163 32.1191 8.24944 33.0398 11.4356H26.0326V2.11332ZM26.0326 13.4986H33.57C34.0575 15.6719 34.3275 17.9119 34.4094 20.198H26.034V13.4986H26.0326ZM26.0326 22.2542H34.4259C34.3832 24.5349 34.147 26.7776 33.6946 28.955H26.0326V22.2542ZM26.0326 31.016H33.1982C33.0301 31.6226 32.8387 32.2189 32.6404 32.816H26.0319L26.0326 31.016ZM20.5906 2.59121C21.6847 2.33436 22.8141 2.17391 23.9716 2.11263V11.4349H16.806C17.6523 8.3059 18.9228 5.33184 20.5906 2.59121ZM15.5762 20.198C15.6189 17.9188 15.8571 15.6753 16.3082 13.4986H23.9716V20.198H15.5762ZM23.9716 22.2542V28.955H16.4328C15.9473 26.7811 15.6774 24.539 15.5961 22.2542H23.9716ZM17.7005 3.516C16.3929 6.01355 15.3875 8.67086 14.6851 11.437H8.55382C10.6651 7.9072 13.8643 5.10047 17.7005 3.516ZM7.47685 13.4986H14.2162C13.7899 15.6808 13.5565 17.9215 13.5131 20.198H5.88687C6.01495 17.8251 6.56239 15.5631 7.47685 13.4986ZM5.88824 22.2542H13.5379C13.6137 24.5362 13.8712 26.7776 14.3312 28.955H7.47822C6.56239 26.8885 6.01495 24.6306 5.88824 22.2542ZM14.8394 31.016C15.0053 31.6226 15.1899 32.2189 15.3847 32.816H9.7933C9.3526 32.2375 8.93117 31.6426 8.5552 31.016H14.8394ZM17.215 46.0137V47.0156H9.29613V35.799H10.464H11.6381V45.018H17.215V46.0137ZM16.9637 31.016H23.9702V32.816H17.5545C17.3466 32.2189 17.1386 31.6261 16.9637 31.016ZM20.521 47.0156H19.3531H18.1791V35.799H19.3469H20.521V47.0156ZM27.3767 47.0156H26.2639H25.1505L21.3515 35.799H22.5951H23.8401L26.3046 44.3562L28.7608 35.799H29.9638H31.1771L27.3767 47.0156ZM40.706 46.0137V47.0156H32.1962V35.799H40.4484V36.7885V37.7911H34.5361V40.1702H40.0194V41.1315V42.099H34.5361V45.02H40.7094V46.013L40.706 46.0137ZM40.2116 32.816H34.8067C34.9871 32.2189 35.162 31.6226 35.317 31.016H41.4476C41.0723 31.6447 40.6509 32.2375 40.2116 32.816ZM35.7852 28.9557C36.2108 26.7749 36.4435 24.5321 36.4876 22.2549H44.1132C43.9892 24.6292 43.4411 26.8871 42.5253 28.9557H35.7852Z" fill="#C6AA0E"/>
</g>
<defs>
<clipPath id="clip0_29_176">
<rect width="50" height="50" fill="white"/>
</clipPath>
</defs>
</svg>
