<svg width="25" height="25" viewBox="0 0 25 25" fill="none" xmlns="http://www.w3.org/2000/svg">
<path d="M14.7505 23.9551C14.7104 23.8852 14.5879 23.6763 14.0259 23.6763C13.4316 23.6763 12.7036 23.9067 12.2075 24.0796C12.0056 24.1552 11.7923 24.196 11.5767 24.2002C10.9087 24.2002 10.5674 23.7358 10.2632 23.2422C8.82422 22.7422 7.53174 21.7773 6.4873 20.478C7.43918 20.7192 8.40621 20.896 9.38184 21.0073C9.39284 20.9206 9.41196 20.8351 9.43896 20.7519C9.47895 20.6318 9.53619 20.5182 9.60889 20.4145C8.35015 20.2771 7.10656 20.0253 5.89355 19.6621C5.01807 18.3354 4.37695 16.7422 4.05273 14.9902C4.60986 15.1465 5.21289 15.2832 5.84961 15.4038C5.69287 15.1621 5.55078 14.9214 5.42969 14.6914C4.89258 14.5752 4.396 14.4507 3.94482 14.3149C3.76013 12.9721 3.7667 11.61 3.96436 10.269C3.57373 10.7417 3.31885 11.2241 3.21436 11.6977C3.20508 11.917 3.19971 12.1372 3.19971 12.3613C3.19993 12.944 3.23351 13.5261 3.30029 14.105C1.81055 13.5801 0.943848 12.9556 0.943848 12.3613H0.927734C0.927717 11.8768 0.957886 11.3928 1.01807 10.9121C0.972168 10.5078 0.953613 10.1245 0.938965 9.7993C0.92627 9.53563 0.911621 9.1953 0.876953 9.00194C0.844238 9.00487 0.812988 9.00585 0.782227 9.00585C0.677719 9.00734 0.573813 8.9898 0.475586 8.95409C0.160674 10.0625 0.000627751 11.2091 0 12.3613C0 19.2651 5.59717 24.8613 12.5 24.8613C13.4451 24.8606 14.3872 24.753 15.3081 24.5405C15.0809 24.3894 14.8904 24.1894 14.7505 23.9551ZM2.2207 17.6787C2.00959 17.27 1.82243 16.8494 1.66016 16.4189C1.66016 16.4136 1.66016 16.4087 1.66016 16.4048H1.65576C1.31651 15.4958 1.09371 14.5475 0.992676 13.5825C1.5249 14.0478 2.3584 14.4531 3.39502 14.7949C3.651 16.3991 4.19173 17.9445 4.9917 19.3584C3.75293 18.8882 2.7876 18.3105 2.2207 17.6787ZM3.13037 19.1533C3.79883 19.5493 4.60449 19.9038 5.52295 20.1982C6.51074 21.6308 7.76416 22.7529 9.18506 23.4507C6.75054 22.7199 4.62334 21.21 3.13037 19.1528V19.1533ZM8.62646 15.1855C8.74414 15.1977 8.85938 15.2104 8.97852 15.2217C8.91016 14.2822 8.87549 13.3247 8.87451 12.3769C8.91861 12.3404 8.95991 12.3005 8.99805 12.2578C9.47461 11.6846 9.41992 10.7285 9.29102 10.0278C9.26562 9.88671 9.25342 9.7993 9.24854 9.74364C9.31689 9.72118 9.41357 9.69481 9.50244 9.66844C9.52588 9.6621 9.55518 9.65282 9.58008 9.64598C9.52002 10.5054 9.48779 11.4131 9.48779 12.3633C9.48779 12.8444 9.49609 13.3151 9.5127 13.7754C9.41165 13.9681 9.35088 14.1793 9.33409 14.3962C9.3173 14.6131 9.34484 14.8312 9.41504 15.0371C9.51412 15.3339 9.64047 15.621 9.79248 15.8945C9.74365 15.8906 9.69482 15.8901 9.646 15.8862C9.7876 17.4116 10.0171 18.7588 10.3008 19.8877C10.0958 19.9712 9.90933 20.0943 9.75195 20.25C9.41553 18.9521 9.17334 17.4331 9.03076 15.8359C8.95898 15.8306 8.88818 15.8227 8.81592 15.8154C8.7699 15.6007 8.70654 15.39 8.62646 15.1855ZM16.4307 0.494616C16.4978 0.598593 16.5265 0.722791 16.5117 0.84569C16.481 1.12157 16.3037 1.25829 16.0449 1.34667C16.4918 1.48885 16.9293 1.65878 17.355 1.85546C17.2655 1.91595 17.1689 1.96515 17.0674 2.00194C16.7306 1.76321 16.3772 1.54895 16.0098 1.36083C15.8266 1.41268 15.6404 1.45297 15.4521 1.48143C15.3545 1.49999 15.2529 1.51659 15.1553 1.5371C15.1807 1.57225 15.2012 1.6162 15.2251 1.65672C15.5974 1.81475 15.9566 2.00203 16.2993 2.21678C16.0317 2.27538 15.7183 2.33104 15.3716 2.3784C15.3406 2.60742 15.2644 2.82799 15.1475 3.02733C15.79 2.95214 16.4409 2.8413 16.96 2.67967C18.3975 3.7871 19.5679 5.41405 20.3164 7.36131C19.2183 7.67235 17.7158 7.94725 15.8936 8.10936C15.6938 6.32176 15.3643 4.66893 14.917 3.35839C14.7693 3.53489 14.6004 3.6925 14.4141 3.82762C14.7832 4.97606 15.0913 6.4409 15.2871 8.15868C14.3364 8.22948 13.3105 8.26805 12.2173 8.26805H12.0581C11.8744 8.49868 11.6573 8.70061 11.4141 8.86717C11.6812 8.87352 11.9512 8.88085 12.2173 8.88085C13.2007 8.88085 14.2749 8.84081 15.3501 8.75926C15.4561 9.87303 15.5156 11.081 15.5156 12.3638C15.5156 13.3515 15.48 14.2954 15.415 15.1855C15.4888 15.2244 15.5524 15.2799 15.6008 15.3477C15.6492 15.4156 15.6811 15.4938 15.6938 15.5762C15.7319 15.812 15.625 16.021 15.375 16.1977L15.3218 16.2378C15.2729 16.7134 15.2153 17.1723 15.1499 17.6108C15.3508 17.73 15.5367 17.8727 15.7036 18.0361C15.8145 17.3301 15.9058 16.5932 15.9731 15.8389C17.8145 15.6772 19.5518 15.3901 20.9844 14.9888C20.6611 16.7363 20.022 18.3266 19.1499 19.6533C19.2168 19.7881 19.2861 19.9219 19.3608 20.0439C19.4033 20.1147 19.438 20.1841 19.4722 20.2529C19.4868 20.2314 19.5029 20.2119 19.5161 20.1914C20.4106 19.9033 21.1978 19.5566 21.8555 19.1743C21.2397 20.0163 20.5136 20.7717 19.6968 21.4204C19.6138 22.0893 19.1812 22.6484 18.7803 23.166C22.499 21.0029 25 16.9751 25 12.3613C25 6.83104 21.4077 2.14305 16.4307 0.494616ZM17.5947 2.40868C17.7191 2.33905 17.8286 2.24565 17.917 2.13378C19.7331 3.09882 21.2608 4.52827 22.3442 6.27635C22.2871 6.55419 21.7847 6.87548 20.8994 7.1787C20.1562 5.2329 19.0073 3.58397 17.5952 2.40868H17.5947ZM16.022 15.2192C16.0908 14.2773 16.126 13.3149 16.126 12.3613C16.126 11.1377 16.0679 9.89842 15.9551 8.70555C17.623 8.55223 19.2524 8.29881 20.5234 7.9326C20.9915 9.36206 21.2281 10.8572 21.2241 12.3613C21.2233 13.0133 21.1789 13.6645 21.0913 14.3105C19.749 14.7129 18.0176 15.039 16.022 15.2192ZM22.7485 17.7388C22.1772 18.3452 21.2397 18.8974 20.0459 19.3501C20.8125 18.0132 21.3643 16.4653 21.6396 14.7895C22.6548 14.457 23.4727 14.0571 24.0059 13.605C23.8522 15.0501 23.4255 16.4528 22.7485 17.7388ZM21.7349 14.1006C21.8021 13.5233 21.8358 12.9425 21.8359 12.3613C21.84 10.7948 21.5927 9.23772 21.1035 7.7495C21.8208 7.49852 22.373 7.20311 22.6865 6.86424C23.599 8.55262 24.0753 10.4422 24.0723 12.3613C24.0723 12.4023 24.0723 12.4429 24.0684 12.4848C23.9604 13.0405 23.1177 13.6138 21.7349 14.1006ZM12.2354 15.8306C12.3115 15.706 12.4248 15.521 12.5317 15.3745H12.542C12.5342 15.4722 12.5215 15.5723 12.5122 15.6504C12.4985 15.7607 12.4863 15.8735 12.4761 15.9868C12.3657 15.9868 12.2544 15.9814 12.1421 15.9814C12.1738 15.9311 12.2046 15.8818 12.2354 15.8306ZM0.621582 8.46874C0.475098 8.36766 0.633301 8.08153 0.690918 7.8369C1.88967 4.98418 4.0988 2.67405 6.89512 1.34905C9.69143 0.0240554 12.8783 -0.222636 15.8452 0.656237C16.48 0.926744 15.1733 0.949205 14.5913 1.16698C14.4233 1.22997 14.3579 1.28758 14.3521 1.34715C14.3379 1.49755 14.6982 1.66307 14.8364 1.97313C14.8931 2.10204 14.896 2.2661 14.8501 2.44335C14.7749 2.73046 14.5664 3.0537 14.2407 3.32665C14.079 3.46232 13.9008 3.57715 13.7104 3.66844C12.8076 4.09764 13.4502 4.0996 13.5869 4.82811C13.7236 5.55663 12.3867 5.64305 12.2788 4.69969C12.1709 3.75633 10.9468 4.42772 11.7002 5.33885C12.3223 6.09227 12.3467 7.39745 11.3804 8.25878C11.1576 8.45521 10.9058 8.61597 10.6338 8.73534C10.5537 8.77147 10.479 8.80223 10.4048 8.83299C10.1495 8.93944 9.88871 9.03218 9.62354 9.11083C9.34033 9.19628 9.13525 9.24559 8.99707 9.30614C8.73193 9.41942 8.69873 9.57762 8.80176 10.1191C9.00391 11.2119 8.86816 12.2895 7.93359 12.1772C6.99902 12.0649 6.57861 10.8467 6.43066 11.603C6.28271 12.3594 7.64551 12.6108 7.94775 13.4609C8.23633 14.2729 7.6831 14.0322 8.07471 15.126C8.09326 15.1782 8.11182 15.2309 8.13525 15.2895C8.19766 15.4447 8.25049 15.6035 8.29346 15.7651C8.52588 16.6479 8.16846 16.8672 7.91357 16.9033C7.73438 16.9282 7.11084 16.3174 6.53516 15.5283C6.37158 15.3037 6.21387 15.0654 6.06885 14.8232C5.88903 14.5283 5.73607 14.2178 5.61182 13.8955C5.10059 12.5166 6.58203 13.3789 5.84668 12.0605C5.11133 10.7422 6.125 10.3848 5.7251 9.90868C5.36426 9.47948 4.82227 8.89989 4.11621 9.4077C4.03185 9.46862 3.95294 9.53674 3.88037 9.61131C3.68785 9.80922 3.51059 10.0214 3.3501 10.2461C2.88574 10.8955 2.65723 11.5561 2.65723 12.1831C2.65723 13.0132 1.85791 12.8862 1.58301 11.3384C1.42871 10.4741 1.45361 9.65233 1.396 9.11229C1.3501 8.68407 1.24951 8.43309 0.968262 8.48534C0.785645 8.52001 0.680176 8.50878 0.621582 8.46874ZM19.0269 21.915C18.7788 22.4223 18.3193 22.9033 17.917 23.4907C17.8628 23.5679 17.8062 23.6372 17.7485 23.706C17.2715 24.2495 16.6333 24.4438 16.0884 24.3359C15.9006 24.301 15.7225 24.2262 15.566 24.1168C15.4096 24.0073 15.2783 23.8656 15.1812 23.7012C15.0635 23.5038 14.8795 23.3546 14.6621 23.2803C14.4703 23.2121 14.268 23.1779 14.0645 23.1792C13.7722 23.18 13.4809 23.2128 13.1958 23.2768C12.8567 23.3506 12.5223 23.4443 12.1943 23.5576C12.1426 23.5742 12.0918 23.5918 12.043 23.6094C11.5503 23.7803 11.272 23.7021 11.0366 23.4629C10.8013 23.2236 10.6162 22.8369 10.3096 22.374C9.98486 21.8857 9.82666 21.4331 9.87842 21.0649C9.92041 20.772 10.0938 20.5317 10.4277 20.3721C10.4766 20.3496 10.5254 20.3286 10.5835 20.3091C11.4985 19.9819 11.6577 20.022 12.041 19.3398C12.4243 18.6577 12.6001 18.0903 13.5688 17.896C14.2974 17.7495 14.728 17.9072 15.0615 18.1484C15.2607 18.2949 15.4277 18.4682 15.6016 18.6269C15.7089 18.729 15.8266 18.8196 15.9526 18.8974C16.625 19.2988 16.543 17.8047 17.2144 17.4966C17.8003 17.2261 18.0796 18.5806 18.6616 19.7969C18.7437 19.9697 18.832 20.1387 18.9287 20.3003C19.0091 20.4336 19.0746 20.5754 19.124 20.7231C19.2749 21.166 19.2085 21.5473 19.0269 21.915ZM12.3784 10.7471C12.292 10.1338 12.5405 9.71678 12.8086 9.85594C13.0767 9.9951 12.9868 10.5884 13.8921 11.5869C14.7974 12.5854 13.8921 13.2056 14.0249 14.4975C14.0703 14.9326 14.2656 15.1767 14.4839 15.3276C14.9141 15.6206 15.4351 15.543 15.0845 15.792C15.0356 15.8247 14.9868 15.8652 14.9312 15.9101C14.3843 16.3569 13.542 17.249 13.1211 16.8208C12.9463 16.6435 12.9443 16.3237 12.9775 15.9819C12.9976 15.7759 13.0293 15.5649 13.0439 15.3735C13.0698 15.0317 13.0439 14.7529 12.7998 14.6748C12.4819 14.5747 12.2017 14.9497 11.9355 15.3735C11.8062 15.5781 11.6797 15.7934 11.5547 15.9726C11.4395 16.1382 11.3252 16.2734 11.208 16.3379C10.9443 16.4844 10.6553 16.269 10.4077 15.9282C10.2683 15.7319 10.1487 15.5222 10.0508 15.3022C9.99011 15.1665 9.93681 15.0277 9.89111 14.8862C9.5249 13.7471 10.8496 13.0859 11.9854 12.7549C13.1211 12.4238 12.4634 11.3598 12.3784 10.7471Z" fill="white"/>
</svg>
