<svg width="50" height="50" viewBox="0 0 50 50" fill="none" xmlns="http://www.w3.org/2000/svg">
<path d="M18.75 29.1666C18.75 32.0442 16.4193 34.3749 13.5417 34.3749C10.6641 34.3749 8.33334 32.0442 8.33334 29.1666C8.33334 26.289 10.6641 23.9583 13.5417 23.9583C16.4193 23.9583 18.75 26.289 18.75 29.1666Z" fill="#C6AA0E"/>
<path d="M3.125 42.0138C3.125 38.3194 10.0651 36.4583 13.5417 36.4583C17.0182 36.4583 23.9583 38.3194 23.9583 42.0138V44.7916H3.125V42.0138Z" fill="#C6AA0E"/>
<path d="M41.6667 29.1666C41.6667 32.0442 39.3359 34.3749 36.4583 34.3749C33.5807 34.3749 31.25 32.0442 31.25 29.1666C31.25 26.289 33.5807 23.9583 36.4583 23.9583C39.3359 23.9583 41.6667 26.289 41.6667 29.1666Z" fill="#C6AA0E"/>
<path d="M29.1667 28.1249C29.1667 30.427 27.3021 32.2916 25 32.2916C22.6979 32.2916 20.8333 30.427 20.8333 28.1249C20.8333 25.8228 22.6979 23.9583 25 23.9583C27.3021 23.9583 29.1667 25.8228 29.1667 28.1249Z" fill="#C6AA0E"/>
<path d="M26.0417 42.0138C26.0417 38.3194 32.9818 36.4583 36.4583 36.4583C39.9349 36.4583 46.875 38.3194 46.875 42.0138V44.7916H26.0417V42.0138Z" fill="#C6AA0E"/>
<path fill-rule="evenodd" clip-rule="evenodd" d="M29.9488 35.6094C29.6707 35.7116 29.3965 35.8201 29.1276 35.9349C27.9077 36.4563 26.6758 37.1605 25.7188 38.1026C25.4625 38.355 25.2193 38.6317 25 38.9323C24.7807 38.6317 24.5375 38.355 24.2811 38.1026C23.3242 37.1605 22.0922 36.4563 20.8723 35.9349C20.6035 35.8201 20.3293 35.7116 20.0511 35.6094C21.6372 34.7876 23.6769 34.375 25 34.375C26.323 34.375 28.3627 34.7876 29.9488 35.6094Z" fill="#C6AA0E"/>
<path fill-rule="evenodd" clip-rule="evenodd" d="M19.8894 18.75C25.3547 18.75 29.7852 15.2522 29.7852 10.9375C29.7852 6.62277 25.3547 3.125 19.8894 3.125C14.4241 3.125 9.99355 6.62277 9.99355 10.9375C9.99355 11.9856 10.255 12.9855 10.7292 13.8987C9.68182 15.1825 9.4253 17.1261 9.37545 18.3478C9.3573 18.7924 9.89412 19.0198 10.2506 18.7534C10.9654 18.2192 12.1007 17.4946 13.5755 16.9534C15.2889 18.0755 17.4894 18.75 19.8894 18.75Z" fill="#C6AA0E"/>
<path fill-rule="evenodd" clip-rule="evenodd" d="M27.4657 18.6098C30.1587 16.7952 31.8785 14.0322 31.8785 10.9374C31.8785 10.1048 31.7541 9.29624 31.5197 8.52368C32.1344 8.39932 32.778 8.33325 33.441 8.33325C37.7557 8.33325 41.2535 11.1315 41.2535 14.5833C41.2535 15.5712 40.9671 16.5054 40.4569 17.3361C40.9386 18.1521 41.1099 19.1753 41.1655 19.9452C41.1975 20.389 40.6604 20.6217 40.2957 20.3667C39.8444 20.0511 39.2297 19.68 38.4752 19.3629C37.1155 20.2803 35.359 20.8333 33.441 20.8333C31.0439 20.8333 28.8987 19.9695 27.4657 18.6098Z" fill="#C6AA0E"/>
</svg>
