<svg width="50" height="52" viewBox="0 0 50 52" fill="none" xmlns="http://www.w3.org/2000/svg">
<g clip-path="url(#clip0_13_28)">
<path d="M42.3916 16.2439C42.1866 16.3758 37.3066 19.16 37.3066 25.3331C37.5366 32.3731 43.4649 34.842 43.5666 34.842C43.4649 34.9739 42.6716 38.2052 40.3216 41.5924C38.4566 44.5102 36.3866 47.452 33.2432 47.452C30.2532 47.452 29.1799 45.5074 25.7299 45.5074C22.0249 45.5074 20.9766 47.452 18.1399 47.452C14.9966 47.452 12.7732 44.3526 10.8066 41.4622C8.25157 37.6792 6.0799 31.7426 6.00324 26.0424C5.95157 23.0218 6.5149 20.0526 7.9449 17.5306C9.96324 14.0097 13.5666 11.6197 17.5016 11.5409C20.5166 11.4363 23.1999 13.6688 25.0399 13.6688C26.8032 13.6688 30.0999 11.5409 33.8299 11.5409C35.4399 11.5426 39.7332 12.0411 42.3916 16.2439ZM24.7849 10.9378C24.2482 8.17933 25.7299 5.42089 27.1099 3.66132C28.8732 1.53338 31.6582 0.0890503 34.0599 0.0890503C34.2132 2.84749 33.2416 5.55282 31.5049 7.52313C29.9466 9.65107 27.2632 11.253 24.7849 10.9378Z" fill="black"/>
</g>
<defs>
<clipPath id="clip0_13_28">
<rect width="50" height="51.3995" fill="white" transform="translate(0 0.0890503)"/>
</clipPath>
</defs>
</svg>
