<svg width="50" height="52" viewBox="0 0 50 52" fill="none" xmlns="http://www.w3.org/2000/svg">
<path d="M48.5223 7.75922H1.4795C0.663773 7.75922 0 8.50954 0 9.43225V38.9186C0 38.9186 0.000909902 38.9196 0.000909902 38.9206V40.394C0.000909902 40.939 0.390803 41.38 0.871686 41.38H20.1252C20.047 43.3191 19.6684 47.2107 17.8887 48.0639C17.8887 48.0639 17.198 48.7885 19.1307 48.7885H22.4386H26.9977H30.3065C32.2392 48.7885 31.5486 48.0639 31.5486 48.0639C29.7688 47.2107 29.3894 43.3186 29.312 41.38H49.1451C49.6279 41.38 49.9964 40.939 49.9964 40.394V38.9649C49.9964 38.9489 50 38.934 50 38.9186V9.43225C50.0009 8.50954 49.338 7.75922 48.5223 7.75922ZM24.0528 41.0548C24.0528 40.5942 24.3826 40.2216 24.7894 40.2216C25.1965 40.2216 25.5259 40.5947 25.5259 41.0548C25.5259 41.5149 25.1961 41.888 24.7894 41.888C24.3826 41.888 24.0528 41.5154 24.0528 41.0548ZM48.5223 39.1018H1.4795V9.564C1.4795 9.43328 1.57276 9.32676 1.68832 9.32676H48.3126C48.4281 9.32676 48.5223 9.43328 48.5223 9.564V39.1018Z" fill="black"/>
<g clip-path="url(#clip0_13_23)">
<path d="M34.1958 19.9731C34.0933 20.0391 31.6533 21.4311 31.6533 24.5177C31.7683 28.0377 34.7325 29.2721 34.7833 29.2721C34.7325 29.3381 34.3358 30.9537 33.1608 32.6474C32.2283 34.1062 31.1933 35.5771 29.6216 35.5771C28.1266 35.5771 27.59 34.6048 25.865 34.6048C24.0125 34.6048 23.4883 35.5771 22.07 35.5771C20.4983 35.5771 19.3866 34.0274 18.4033 32.5822C17.1258 30.6907 16.04 27.7224 16.0016 24.8723C15.9758 23.362 16.2575 21.8774 16.9725 20.6164C17.9816 18.856 19.7833 17.661 21.7508 17.6216C23.2583 17.5693 24.6 18.6855 25.52 18.6855C26.4016 18.6855 28.05 17.6216 29.915 17.6216C30.72 17.6224 32.8666 17.8717 34.1958 19.9731ZM25.3925 17.32C25.1241 15.9408 25.865 14.5616 26.555 13.6818C27.4366 12.6178 28.8291 11.8957 30.03 11.8957C30.1066 13.2749 29.6208 14.6275 28.7525 15.6127C27.9733 16.6767 26.6316 17.4776 25.3925 17.32Z" fill="black"/>
</g>
<defs>
<clipPath id="clip0_13_23">
<rect width="25" height="25.6997" fill="white" transform="translate(12 12.4249)"/>
</clipPath>
</defs>
</svg>
