<?xml version="1.0" encoding="UTF-8"?>
<svg id="Camada_2" data-name="Camada 2" xmlns="http://www.w3.org/2000/svg" viewBox="0 0 1244.84 746.9">
  <defs>
    <style>
      .cls-1 {
        fill: #8cc63f;
      }

      .cls-2 {
        letter-spacing: 0em;
      }

      .cls-3 {
        fill: #f7931e;
      }

      .cls-4 {
        fill: #3fa9f5;
      }

      .cls-5 {
        fill: #d3be00;
      }

      .cls-6 {
        font-family: Montserrat, Montserrat;
        font-size: 125px;
        font-weight: 700;
      }

      .cls-7 {
        font-family: Montserrat, Montserrat;
        font-size: 130px;
        font-weight: 600;
      }

      .cls-8 {
        letter-spacing: 0em;
      }

      .cls-9 {
        fill: #fff;
        stroke: #f7931e;
        stroke-miterlimit: 10;
      }
    </style>
  </defs>
  <text/>
  <text class="cls-6" transform="translate(457.74 432.57)"><tspan x="0" y="0">Metatrader</tspan></text>
  <ellipse class="cls-3" cx="204.5" cy="409" rx="93" ry="91.5"/>
  <ellipse class="cls-9" cx="203" cy="408" rx="75.5" ry="71.5"/>
  <path class="cls-4" d="m249,502c2.65,1.32,27.98-20.29,30-23,11.98-16.06,32-57,26.6-73.25-.27-.81,12.55-2.7,13.4-2.75,9-.55,2.67.01,10.67-51.85.15-.98,1.29-1.47,2.1-.88,34.06,24.57,54.21,36.44,54.23,78.68,0,.04,0,.07,0,.11-1.99,27.86,2.98,40.86-35.58,14.24-.27-.18-11.1-.33-11.42-.29-25.48,3.01-27.88,9.96-37.79,18.81-.14.12-.23.28-.33.44-7.58,12.86-24.55,40.89,37.66,75.7.78.43.74,1.6.03,2.14-28.59,21.79-32.78,20.99-47.39,24.86-.12.03-.25.05-.38.04-21.01-.88-54.04,17.78-128.81-58.99-.39,0-.62-.45-.77-1-.25-.95.6-1.82,1.56-1.62,11.42,2.41,68.01,16.01,86.21,13.62,16.83-2.21,3.53-13.38-3-16"/>
  <path class="cls-5" d="m22.04,459.6s-23.67-113.35,122.47-134.6c1.03,3.04-102.2,109.41-42.51,75,4.12,11.13-5.86,59.6,50.75,101.1,0,8.1-1.03,10.12-1.03,10.12h-4.12v7.08l13.38-1.01s21.61,30.36,36.02,36.43c-27.79,11.13-110.12,26.31-126.59-14.17,31.59-29.56,48.59-49.56,33.96-78.94,0,0-19.55-35.42-82.33-1.01Z"/>
  <path class="cls-1" d="m302,368.5l1.65,13.73c.2,2.14,1.99,3.77,4.14,3.77h2.05c2.3,0,4.16-1.86,4.16-4.16v-13.84c0-.19,4-8,5-9l.95-32.63c.03-.25.05-.49.04-.74l-.96-23.96c-.02-.45-.11-.88-.26-1.3-7.72-20.46-19.55-59.87-64.7-73.5-2.55-.77-5.17.99-5.37,3.65-1.65,22.14-8.72,64.56-46.05,65.95-.42.02-.84-.04-1.25-.14-11.31-3.04-46.1-11.7-42.47-63.28.21-2.96-2.65-5.19-5.47-4.24-13.24,4.49-44.99,18.1-62.19,49.69-.18.32-.31.67-.4,1.03-2.19,9.18-6.84,40.89-5.87,50.46.27,2.7,10.33-1.51,13-2,10.25-1.86,23.33-8.9,33.76-12.27,1.54-.5,2.65-1.84,2.84-3.44.16-1.32.25-2.88.31-4.29.09-2.23,1.92-4,4.15-4h1.22c2.12,0,3.9,1.59,4.13,3.7l.19,1.72c.23,2.06,1.94,3.63,4.01,3.7l25.37.77c2.24.07,4.13-1.66,4.27-3.9h0c.14-2.23,2.01-3.94,4.24-3.9l41.72.9c.52.01,1.04.12,1.52.32l32.87,13.84c2.6,1.09,5.49-.66,5.75-3.46.21-2.16.28-5.15.02-9.25-.15-2.4,1.75-4.43,4.15-4.43h1.67c1.7,0,3.23,1.03,3.86,2.61l2.74,6.85c.14.36.24.73.28,1.12l2.81,27.12c.09.85.43,1.64.99,2.29l21.15,24.51"/>
  <ellipse class="cls-1" cx="205.3" cy="241.91" rx="36.36" ry="44.88" transform="translate(-13.71 12.34) rotate(-3.33)"/>
  <ellipse class="cls-4" cx="347.55" cy="490.51" rx="37.52" ry="45.99" transform="translate(-251.33 438.16) rotate(-49.69)"/>
  <ellipse class="cls-5" cx="58.07" cy="490.17" rx="47.03" ry="35.54" transform="translate(-290.75 140.94) rotate(-38.21)"/>
  <text class="cls-7" transform="translate(167.22 454.05)"><tspan x="0" y="0">5</tspan></text>
</svg>