<svg width="21" height="25" viewBox="0 0 21 25" fill="none" xmlns="http://www.w3.org/2000/svg">
<g filter="url(#filter0_b_1_28)">
<path d="M14.8485 15.4907L10.3182 18.125L5.78786 15.4883C4.09436 16.072 2.62883 17.1496 1.59251 18.5729C0.556193 19.9962 -0.000106113 21.6955 1.51821e-08 23.4375C1.51821e-08 23.8519 0.169858 24.2493 0.472207 24.5424C0.774556 24.8354 1.18463 25 1.61222 25H19.0241C19.4517 25 19.8618 24.8354 20.1642 24.5424C20.4665 24.2493 20.6364 23.8519 20.6364 23.4375C20.6359 21.6959 20.0794 19.9971 19.0431 18.5743C18.0068 17.1515 16.5416 16.0743 14.8485 15.4907ZM6.91641 13.4253C6.97435 13.4629 7.03228 13.4971 7.09375 13.5317V14.7949L10.3182 16.6699L13.5426 14.7949V13.5312C13.6041 13.4971 13.662 13.4624 13.72 13.4248C14.1957 13.141 14.6296 12.7961 15.0097 12.3994C16.1394 11.2457 16.7685 9.71549 16.767 8.125V6.25C16.767 4.5924 16.0876 3.00269 14.8782 1.83058C13.6688 0.65848 12.0285 0 10.3182 0C8.60784 0 6.96754 0.65848 5.75815 1.83058C4.54875 3.00269 3.86932 4.5924 3.86932 6.25V8.125C3.86704 9.71651 4.49622 11.2479 5.62663 12.4023C6.007 12.798 6.44086 13.1424 6.91641 13.4253Z" fill="white"/>
</g>
<defs>
<filter id="filter0_b_1_28" x="-4" y="-4" width="28.6364" height="33" filterUnits="userSpaceOnUse" color-interpolation-filters="sRGB">
<feFlood flood-opacity="0" result="BackgroundImageFix"/>
<feGaussianBlur in="BackgroundImageFix" stdDeviation="2"/>
<feComposite in2="SourceAlpha" operator="in" result="effect1_backgroundBlur_1_28"/>
<feBlend mode="normal" in="SourceGraphic" in2="effect1_backgroundBlur_1_28" result="shape"/>
</filter>
</defs>
</svg>
