<svg width="16" height="25" viewBox="0 0 16 25" fill="none" xmlns="http://www.w3.org/2000/svg">
<g filter="url(#filter0_b_1_27)">
<path d="M15.7206 6.15527C15.7206 6.97217 15.5579 7.77002 15.1573 8.49512C14.8122 9.11632 14.3757 9.68558 13.8615 10.1851C13.0448 10.958 12.1677 11.7026 11.3173 12.4409C11.044 12.6748 10.7853 12.9241 10.5424 13.1875C10.3913 13.3479 10.2604 13.525 10.1524 13.7153L10.1489 13.7241C10.0667 13.8767 10.0004 14.0368 9.9509 14.2021C9.8592 14.5112 9.78766 14.8369 9.71713 15.1519C9.49595 16.313 8.75383 16.9849 7.51595 16.9849C6.90431 16.9849 6.35717 16.7896 5.91381 16.3818C5.41251 15.9165 5.24978 15.2759 5.24978 14.624C5.24978 13.8584 5.36011 13.0791 5.67097 12.3706C5.93634 11.7534 6.31074 11.1858 6.77735 10.6934C7.08317 10.377 7.43937 10.0854 7.78045 9.80566C8.18351 9.4751 8.58908 9.1499 8.98458 8.80859C9.58916 8.28613 10.8991 7.12842 10.761 6.24951C10.6366 5.43018 10.2401 4.71045 9.45111 4.33691C8.60621 3.9375 7.56784 4.05273 6.73957 4.43457C5.7677 4.88281 5.03969 5.69775 4.75805 6.71143C4.44518 7.84863 3.68089 8.65137 2.4153 8.65137C2.09444 8.65632 1.77602 8.59665 1.48019 8.47612C1.18437 8.35559 0.917602 8.17683 0.69678 7.95117C0.275588 7.5293 0 7.02344 0 6.4248C0 5.34668 0.389451 4.34033 0.973879 3.43506C1.66411 2.37207 2.64504 1.56836 3.7751 0.969727C5.09007 0.274414 6.54812 0 8.03942 0C9.41736 0 10.7832 0.228027 12.0286 0.812012C13.137 1.32422 14.0716 2.0542 14.7533 3.0498C15.3869 3.96885 15.7236 5.04997 15.7206 6.15527ZM7.47867 18.6626C6.56071 18.6626 5.763 18.9775 5.08553 19.6074C4.40807 20.2373 4.06984 20.984 4.07085 21.8477C4.07085 22.7116 4.40907 23.4528 5.08553 24.0713C5.76199 24.6898 6.5597 24.999 7.47867 24.999C8.38554 24.999 9.17771 24.6898 9.85517 24.0713C10.5326 23.4528 10.8709 22.7116 10.8699 21.8477C10.8699 20.9847 10.5316 20.238 9.85517 19.6074C9.17871 18.9769 8.38655 18.6619 7.47867 18.6626Z" fill="white"/>
</g>
<defs>
<filter id="filter0_b_1_27" x="-4" y="-4" width="23.7206" height="32.999" filterUnits="userSpaceOnUse" color-interpolation-filters="sRGB">
<feFlood flood-opacity="0" result="BackgroundImageFix"/>
<feGaussianBlur in="BackgroundImageFix" stdDeviation="2"/>
<feComposite in2="SourceAlpha" operator="in" result="effect1_backgroundBlur_1_27"/>
<feBlend mode="normal" in="SourceGraphic" in2="effect1_backgroundBlur_1_27" result="shape"/>
</filter>
</defs>
</svg>
