<svg width="40" height="40" viewBox="0 0 40 40" fill="none" xmlns="http://www.w3.org/2000/svg">
<path d="M19.9998 23.3334C21.8408 23.3334 23.3332 21.841 23.3332 20.0001C23.3332 18.1591 21.8408 16.6667 19.9998 16.6667C18.1589 16.6667 16.6665 18.1591 16.6665 20.0001C16.6665 21.841 18.1589 23.3334 19.9998 23.3334Z" stroke="#C6AA0E" stroke-width="2" stroke-linecap="round" stroke-linejoin="round"/>
<path d="M27.0683 13.0032C27.9983 13.9228 28.7361 15.0147 29.2394 16.2167C29.7428 17.4186 30.0018 18.707 30.0018 20.0082C30.0018 21.3093 29.7428 22.5977 29.2394 23.7997C28.7361 25.0016 27.9983 26.0936 27.0683 27.0131M12.932 26.9966C12.002 26.0771 11.2643 24.9851 10.7609 23.7832C10.2576 22.5812 9.99849 21.2928 9.99849 19.9917C9.99849 18.6905 10.2576 17.4021 10.7609 16.2002C11.2643 14.9982 12.002 13.9063 12.932 12.9867M31.786 8.33325C34.9112 11.4278 36.6668 15.6243 36.6668 19.9999C36.6668 24.3756 34.9112 28.5721 31.786 31.6666M8.21431 31.6666C5.08913 28.5721 3.3335 24.3756 3.3335 19.9999C3.3335 15.6243 5.08913 11.4278 8.21431 8.33325" stroke="#C6AA0E" stroke-width="2" stroke-linecap="round" stroke-linejoin="round"/>
</svg>
