<svg width="44" height="50" viewBox="0 0 44 50" fill="none" xmlns="http://www.w3.org/2000/svg">
<path d="M43.0968 46.1018L42.0319 42.9709C40.0323 37.0815 34.6175 33.0678 28.4485 32.8044C27.9056 33.2263 27.3332 33.5888 26.74 33.9058C25.8556 36.228 22.8841 36.8572 21.1431 35.0787C19.0834 34.8967 17.1977 34.0831 15.5509 32.8045C9.38195 33.0671 3.96863 37.0808 1.9676 42.971L0.90449 46.1018C0.597155 47.0023 0.74517 47.9948 1.29954 48.7678C1.85214 49.5415 2.7463 50 3.6973 50H40.3025C41.2533 50 42.1475 49.5416 42.7002 48.7678C43.2544 47.9948 43.4023 47.0023 43.0968 46.1018Z" fill="#C6AA0E"/>
<path d="M26.0752 30.4215C29.6564 27.9043 32.1612 22.3455 32.1612 16.9713C32.1612 1.69806 11.8398 1.71429 11.8398 16.9713C11.8398 23.5029 15.5381 30.2972 20.3759 31.5798C20.8423 30.2581 22.0907 29.3023 23.5701 29.3023C24.565 29.3022 25.4525 29.7386 26.0752 30.4215Z" fill="#C6AA0E"/>
<path d="M7.38082 23.3476C7.88464 25.3267 10.6304 24.7821 10.6304 22.9493C10.6304 15.6032 10.9815 14.9173 9.99809 14.1199C12.2494 0.247151 31.6428 0.351201 34.0032 14.1215C33.0212 14.9213 33.3725 15.6041 33.3725 22.9493C33.3725 23.5239 33.6813 24.006 34.125 24.3051C34.125 30.0199 31.8069 29.6858 24.8363 31.5333C23.7586 30.3637 21.8338 31.1252 21.8338 32.7029C21.8338 34.6788 24.6657 35.1412 25.2151 33.1549C30.8428 31.6626 35.7895 31.192 35.7895 25.5674V24.4131C36.2073 24.1969 36.5031 23.8134 36.6218 23.3476C42.0464 23.2371 42.0481 15.1075 36.6218 14.9969C36.5096 14.5531 36.2333 14.1906 35.8448 13.9695C35.9846 12.3049 35.6417 10.1168 34.6873 8.00442C28.0502 -5.69113 8.44707 -0.332453 8.14005 12.9405C8.09776 13.39 8.13189 13.7086 8.15785 13.9695C7.76928 14.1906 7.49303 14.5531 7.38082 14.9969C5.10826 15.0408 3.27618 16.8899 3.27618 19.1723C3.27618 21.4546 5.10826 23.3036 7.38082 23.3476Z" fill="#C6AA0E"/>
</svg>
