<svg width="52" height="57" viewBox="0 0 52 57" fill="none" xmlns="http://www.w3.org/2000/svg">
<g filter="url(#filter0_dd_13_30)">
<path d="M45.6697 26.727C46.8203 26.727 47.753 27.6858 47.753 28.8686V39.5768C47.753 40.7597 46.8203 41.7185 45.6697 41.7185H39.4197V46.0018H40.4614C41.0366 46.0018 41.503 46.4813 41.503 47.0726C41.503 47.6639 41.0366 48.1434 40.4614 48.1434H32.128C31.5528 48.1434 31.0864 47.6639 31.0864 47.0726C31.0864 46.4813 31.5528 46.0018 32.128 46.0018H33.1697V41.7185H26.9197C25.7691 41.7185 24.8364 40.7597 24.8364 39.5768V28.8686C24.8364 27.6858 25.7691 26.727 26.9197 26.727H45.6697ZM22.753 34.2244V39.5768C22.753 41.835 24.4527 43.6849 26.6087 43.8484L26.9197 43.8601H27.8545C26.9024 45.2321 25.8682 45.9996 24.8366 45.9996C22.4208 45.9996 19.9921 41.7911 18.6359 35.4731L18.508 34.8551L18.3871 34.2244H22.753ZM15.1937 34.2244C15.9537 38.6838 17.2417 42.4777 18.9275 45.1327C13.8107 43.5792 9.51506 40.063 6.86483 35.4324L6.52854 34.8222L6.22365 34.2249L15.1937 34.2244ZM31.971 20.3025C32.0755 21.6849 32.1314 23.117 32.1314 24.5853H26.9197C24.6185 24.5853 22.753 26.5029 22.753 28.8686V31.0122H17.9073C17.6718 28.9866 17.5417 26.8289 17.5417 24.5864C17.5417 23.4849 17.5731 22.4038 17.6329 21.3486L17.7022 20.3025H31.971ZM14.5627 20.3037C14.4663 21.6958 14.4167 23.1269 14.4167 24.5864C14.4167 25.9186 14.458 27.2271 14.5385 28.5038L14.632 29.7696L14.751 31.0122H4.95381C4.33408 28.9836 4 26.825 4 24.5864C4 23.4128 4.09181 22.2611 4.26849 21.1387L4.41679 20.3025L14.5627 20.3037ZM45.2564 20.3025C45.5295 21.6864 45.673 23.1185 45.673 24.5853H35.2564C35.2564 23.6126 35.2343 22.6527 35.1912 21.7084L35.1103 20.3037L45.2564 20.3025ZM30.7458 4.04017C36.8243 5.8847 41.7458 10.5023 44.1244 16.468L44.3614 17.0899L34.797 17.0905C34.1808 12.2378 32.9686 8.02749 31.3085 4.99531L30.9705 4.40474L30.7458 4.04017ZM18.9273 4.04025C17.2071 6.74979 15.9009 10.6454 15.1476 15.2239L15.0043 16.1486L14.8761 17.0905L5.31171 17.0899C7.48104 11.1217 12.1657 6.41473 18.0397 4.33204L18.6736 4.119L18.9273 4.04025ZM24.8366 3.17303C27.5056 3.17303 30.1903 8.30995 31.4271 15.7531L31.5324 16.4158L31.6299 17.09H18.0432C19.167 8.93207 22.0105 3.17303 24.8366 3.17303Z" fill="#212121"/>
</g>
<defs>
<filter id="filter0_dd_13_30" x="-3" y="0.0890503" width="58" height="59.3995" filterUnits="userSpaceOnUse" color-interpolation-filters="sRGB">
<feFlood flood-opacity="0" result="BackgroundImageFix"/>
<feColorMatrix in="SourceAlpha" type="matrix" values="0 0 0 0 0 0 0 0 0 0 0 0 0 0 0 0 0 0 127 0" result="hardAlpha"/>
<feOffset dy="4"/>
<feGaussianBlur stdDeviation="2"/>
<feComposite in2="hardAlpha" operator="out"/>
<feColorMatrix type="matrix" values="0 0 0 0 0 0 0 0 0 0 0 0 0 0 0 0 0 0 0.25 0"/>
<feBlend mode="normal" in2="BackgroundImageFix" result="effect1_dropShadow_13_30"/>
<feColorMatrix in="SourceAlpha" type="matrix" values="0 0 0 0 0 0 0 0 0 0 0 0 0 0 0 0 0 0 127 0" result="hardAlpha"/>
<feOffset dy="4"/>
<feGaussianBlur stdDeviation="2"/>
<feComposite in2="hardAlpha" operator="out"/>
<feColorMatrix type="matrix" values="0 0 0 0 0 0 0 0 0 0 0 0 0 0 0 0 0 0 0.25 0"/>
<feBlend mode="normal" in2="effect1_dropShadow_13_30" result="effect2_dropShadow_13_30"/>
<feBlend mode="normal" in="SourceGraphic" in2="effect2_dropShadow_13_30" result="shape"/>
</filter>
</defs>
</svg>
