<svg width="40" height="40" viewBox="0 0 40 40" fill="none" xmlns="http://www.w3.org/2000/svg">
<path d="M37.5665 10.7001C37.3685 9.9091 36.9653 9.18437 36.3976 8.59909C35.8299 8.01382 35.1177 7.58872 34.3331 7.36675C31.4665 6.66675 19.9998 6.66675 19.9998 6.66675C19.9998 6.66675 8.53315 6.66675 5.66648 7.43341C4.88189 7.65539 4.16978 8.08048 3.60206 8.66576C3.03434 9.25103 2.63113 9.97576 2.43315 10.7667C1.9085 13.676 1.65187 16.6273 1.66648 19.5834C1.64778 22.5618 1.90443 25.5356 2.43315 28.4667C2.65141 29.2332 3.06366 29.9303 3.63005 30.4909C4.19645 31.0514 4.89785 31.4564 5.66648 31.6667C8.53315 32.4334 19.9998 32.4334 19.9998 32.4334C19.9998 32.4334 31.4665 32.4334 34.3331 31.6667C35.1177 31.4448 35.8299 31.0197 36.3976 30.4344C36.9653 29.8491 37.3685 29.1244 37.5665 28.3334C38.0871 25.4461 38.3437 22.5173 38.3331 19.5834C38.3519 16.605 38.0952 13.6312 37.5665 10.7001Z" stroke="#C6AA0E" stroke-width="2" stroke-linecap="round" stroke-linejoin="round"/>
<path d="M16.25 25.0333L25.8333 19.5833L16.25 14.1333V25.0333Z" stroke="#C6AA0E" stroke-width="2" stroke-linecap="round" stroke-linejoin="round"/>
</svg>
